<svg width="606" height="758" viewBox="0 0 606 758" fill="none" xmlns="http://www.w3.org/2000/svg">
<path d="M139.386 238.068C140.019 238.87 141.156 239.066 142.022 238.521L417.14 65.1716C418.837 64.1025 418.08 61.4795 416.074 61.4795H4.12662C2.45569 61.4795 1.52148 63.4071 2.55674 64.7186L139.386 238.068Z" fill="#D6FF45"/>
<path d="M357.495 233.362C357.181 234.053 356.503 234.506 355.745 234.532L160.348 241.351C158.311 241.422 157.486 238.757 159.206 237.664L429.816 65.7193C431.495 64.6522 433.533 66.4256 432.708 68.2364L357.495 233.362Z" fill="#D6FF45"/>
<path d="M447.778 61.98C446.998 61.98 446.289 62.4335 445.962 63.1417L368.051 231.913C367.166 233.829 369.468 235.632 371.116 234.313L582.049 65.5413C583.525 64.3602 582.69 61.9796 580.799 61.9796L447.778 61.98Z" fill="#D6FF45"/>
<path d="M370.208 249.021C369.537 248.165 369.674 246.929 370.516 246.24L585.486 70.4345C587.117 69.1005 589.436 70.8704 588.58 72.7956L460.837 359.934C460.224 361.311 458.365 361.541 457.435 360.354L370.208 249.021Z" fill="#D6FF45"/>
<path d="M450.226 371.072C450.89 371.916 450.767 373.135 449.949 373.831L241.309 551.243C239.71 552.603 237.363 550.894 238.165 548.955L358.193 258.768C358.777 257.355 360.668 257.094 361.613 258.297L450.226 371.072Z" fill="#D6FF45"/>
<path d="M237.871 569.557C237.368 568.72 237.543 567.643 238.284 567.008L442.403 392.194C443.985 390.839 446.327 392.503 445.566 394.443L323.476 705.821C322.87 707.366 320.754 707.543 319.899 706.121L237.871 569.557Z" fill="#D6FF45"/>
<path d="M229.718 575.155C229.082 574.086 227.636 573.851 226.694 574.662L59.8764 718.317C58.4686 719.53 59.3303 721.839 61.1881 721.833L313.001 720.99C314.549 720.984 315.505 719.297 314.713 717.967L229.718 575.155Z" fill="#D6FF45"/>
<path d="M229.549 555.018C229.434 555.303 229.255 555.557 229.026 555.762L48.9025 716.243C47.168 717.789 44.6363 715.632 45.8862 713.674L270.711 361.413L331.799 271.676C331.869 271.573 331.949 271.477 332.037 271.389L345.663 257.739C347.203 256.196 349.75 257.881 348.932 259.902L229.549 555.018Z" fill="#D6FF45"/>
</svg>
